<?xml version="1.0" encoding="UTF-8"?>
<!DOCTYPE svg PUBLIC "-//W3C//DTD SVG 1.1//EN" "http://www.w3.org/Graphics/SVG/1.1/DTD/svg11.dtd">
<svg xmlns="http://www.w3.org/2000/svg" version="1.1" width="16px" height="16px" style="shape-rendering:geometricPrecision; text-rendering:geometricPrecision; image-rendering:optimizeQuality; fill-rule:evenodd; clip-rule:evenodd" xmlns:xlink="http://www.w3.org/1999/xlink">
<g><path style="opacity:0.414" fill="#e5e6e5" d="M 7.5,-0.5 C 8.5,-0.5 9.5,-0.5 10.5,-0.5C 9.85048,1.43525 9.51715,3.43525 9.5,5.5C 8.56552,6.56764 8.23219,7.90097 8.5,9.5C 7.56552,10.5676 7.23219,11.901 7.5,13.5C 6.66175,13.8417 6.32842,14.5084 6.5,15.5C 5.83333,15.5 5.16667,15.5 4.5,15.5C 4.5,14.1667 4.5,12.8333 4.5,11.5C 5.43448,10.4324 5.76781,9.09903 5.5,7.5C 6.43448,6.43236 6.76781,5.09903 6.5,3.5C 7.43448,2.43236 7.76781,1.09903 7.5,-0.5 Z"/></g>
<g><path style="opacity:0.004" fill="#e5e6e5" d="M 11.5,-0.5 C 11.8333,-0.5 12.1667,-0.5 12.5,-0.5C 12.1667,2.16667 11.8333,2.16667 11.5,-0.5 Z"/></g>
<g><path style="opacity:0.004" fill="#e5e6e5" d="M 2.5,0.5 C 3.83333,1.16667 3.83333,1.16667 2.5,0.5 Z"/></g>
<g><path style="opacity:0.009" fill="#e5e6e5" d="M 6.5,3.5 C 5.83333,3.16667 5.16667,2.83333 4.5,2.5C 5.98807,-0.18641 6.65473,0.146923 6.5,3.5 Z"/></g>
<g><path style="opacity:0.411" fill="#e5e6e5" d="M 4.5,2.5 C 4.5,3.16667 4.5,3.83333 4.5,4.5C 2.48052,5.53825 2.14719,6.87158 3.5,8.5C 4.10978,9.39105 4.44312,10.391 4.5,11.5C 3.5,12.8333 2.5,12.8333 1.5,11.5C 1.57298,9.97306 0.906316,8.97306 -0.5,8.5C -0.5,7.83333 -0.5,7.16667 -0.5,6.5C 0.558761,4.44456 2.22543,3.11123 4.5,2.5 Z"/></g>
<g><path style="opacity:0.43" fill="#e5e6e5" d="M 15.5,6.5 C 15.5,7.16667 15.5,7.83333 15.5,8.5C 14.8333,8.5 14.5,8.83333 14.5,9.5C 13.8333,9.5 13.5,9.83333 13.5,10.5C 11.6941,13.3382 10.6941,13.0048 10.5,9.5C 11.1667,9.5 11.5,9.16667 11.5,8.5C 12.8333,7.83333 12.8333,7.16667 11.5,6.5C 10.7084,5.0331 10.7084,3.69976 11.5,2.5C 12.5213,4.188 13.8546,5.52134 15.5,6.5 Z"/></g>
<g><path style="opacity:0.009" fill="#e5e6e5" d="M 4.5,4.5 C 5.40397,5.20895 5.73731,6.20895 5.5,7.5C 4.83333,7.83333 4.16667,8.16667 3.5,8.5C 3.83333,7.16667 4.16667,5.83333 4.5,4.5 Z"/></g>
<g><path style="opacity:0.013" fill="#e5e6e5" d="M 9.5,5.5 C 10.1667,5.83333 10.8333,6.16667 11.5,6.5C 11.5,7.16667 11.5,7.83333 11.5,8.5C 10.8333,8.5 10.5,8.83333 10.5,9.5C 10.1667,9.5 9.83333,9.5 9.5,9.5C 9.5,8.16667 9.5,6.83333 9.5,5.5 Z"/></g>
<g><path style="opacity:0.009" fill="#e5e6e5" d="M 8.5,9.5 C 8.83333,9.5 9.16667,9.5 9.5,9.5C 9.76781,11.099 9.43448,12.4324 8.5,13.5C 8.5,12.1667 8.5,10.8333 8.5,9.5 Z"/></g>
<g><path style="opacity:0.012" fill="#e5e6e5" d="M 14.5,9.5 C 14.8333,9.5 15.1667,9.5 15.5,9.5C 15.5,9.83333 15.5,10.1667 15.5,10.5C 15.1667,10.1667 14.8333,9.83333 14.5,9.5 Z"/></g>
<g><path style="opacity:0.012" fill="#e5e6e5" d="M 13.5,10.5 C 13.8333,10.5 14.1667,10.5 14.5,10.5C 14.3147,11.1701 13.9813,11.1701 13.5,10.5 Z"/></g>
<g><path style="opacity:0.004" fill="#e5e6e5" d="M 1.5,11.5 C 0.833333,12.1667 0.833333,12.1667 1.5,11.5 Z"/></g>
<g><path style="opacity:0.008" fill="#e5e6e5" d="M 2.5,13.5 C 3.83333,14.1667 3.83333,14.1667 2.5,13.5 Z"/></g>
<g><path style="opacity:0.006" fill="#e5e6e5" d="M 7.5,13.5 C 7.83333,13.5 8.16667,13.5 8.5,13.5C 8.5,14.1667 8.5,14.8333 8.5,15.5C 8.16667,15.5 7.83333,15.5 7.5,15.5C 7.5,14.8333 7.5,14.1667 7.5,13.5 Z"/></g>
</svg>
